<svg width="118" height="28" viewBox="0 0 118 28" fill="none" xmlns="http://www.w3.org/2000/svg">
<rect x="8.40822" width="20.46" height="18.2751" fill="url(#paint0_linear_7_8)"/>
<rect y="9.13756" width="20.46" height="18.2751" fill="url(#paint1_linear_7_8)"/>
<path d="M66.0741 12.7926V0.640808H67.5456V11.4872H73.1943V12.7926H66.0741Z" fill="white"/>
<path d="M56.088 12.7926V0.640808H63.4218V1.94617H57.5595V6.05214H63.0421V7.35751H57.5595V11.4872H63.5168V12.7926H56.088Z" fill="white"/>
<path d="M46.0798 0.640808L49.2126 5.69613H49.3076L52.4404 0.640808H54.173L50.3519 6.71669L54.173 12.7926H52.4404L49.3076 7.83218H49.2126L46.0798 12.7926H44.3472L48.2633 6.71669L44.3472 0.640808H46.0798Z" fill="white"/>
<path d="M42.4173 0.640808V12.7926H40.9458V0.640808H42.4173Z" fill="white"/>
<path d="M30.3397 12.7926V0.640808H34.4457C35.399 0.640808 36.1783 0.812879 36.7835 1.15702C37.3926 1.49721 37.8436 1.95804 38.1363 2.53952C38.429 3.121 38.5754 3.76973 38.5754 4.4857C38.5754 5.20168 38.429 5.85238 38.1363 6.43782C37.8475 7.02325 37.4005 7.49002 36.7953 7.83812C36.1901 8.18226 35.4148 8.35433 34.4694 8.35433H31.5264V7.04897H34.4219C35.0746 7.04897 35.5987 6.93623 35.9943 6.71076C36.3899 6.48528 36.6767 6.1807 36.8547 5.797C37.0366 5.40935 37.1276 4.97225 37.1276 4.4857C37.1276 3.99916 37.0366 3.56404 36.8547 3.18034C36.6767 2.79664 36.3879 2.49601 35.9884 2.27845C35.5889 2.05693 35.0588 1.94617 34.3982 1.94617H31.8112V12.7926H30.3397Z" fill="white"/>
<path d="M115.846 18.2989C115.774 17.6976 115.486 17.2308 114.979 16.8986C114.473 16.5663 113.852 16.4001 113.116 16.4001C112.578 16.4001 112.108 16.4872 111.704 16.6612C111.305 16.8353 110.992 17.0746 110.767 17.3792C110.545 17.6838 110.434 18.0299 110.434 18.4175C110.434 18.7419 110.511 19.0208 110.666 19.2541C110.824 19.4836 111.026 19.6754 111.271 19.8297C111.516 19.98 111.773 20.1046 112.042 20.2035C112.311 20.2984 112.558 20.3756 112.784 20.4349L114.018 20.7672C114.335 20.8503 114.687 20.965 115.074 21.1113C115.466 21.2577 115.84 21.4574 116.196 21.7106C116.556 21.9598 116.852 22.2802 117.086 22.6718C117.319 23.0634 117.436 23.5441 117.436 24.1137C117.436 24.7703 117.264 25.3637 116.92 25.8937C116.579 26.4238 116.081 26.845 115.424 27.1575C114.772 27.47 113.979 27.6263 113.045 27.6263C112.175 27.6263 111.421 27.4859 110.784 27.205C110.151 26.9242 109.653 26.5325 109.289 26.0302C108.929 25.5278 108.725 24.9444 108.678 24.2798H110.197C110.236 24.7387 110.391 25.1184 110.66 25.419C110.933 25.7157 111.277 25.9372 111.692 26.0836C112.111 26.226 112.562 26.2972 113.045 26.2972C113.607 26.2972 114.111 26.2062 114.558 26.0242C115.005 25.8383 115.359 25.5812 115.62 25.2529C115.881 24.9206 116.012 24.533 116.012 24.0899C116.012 23.6865 115.899 23.3581 115.674 23.105C115.448 22.8518 115.151 22.6461 114.784 22.4879C114.416 22.3297 114.018 22.1912 113.591 22.0725L112.096 21.6453C111.146 21.3724 110.395 20.9828 109.841 20.4764C109.287 19.9701 109.01 19.3075 109.01 18.4887C109.01 17.8084 109.194 17.215 109.562 16.7087C109.934 16.1984 110.432 15.8028 111.057 15.522C111.686 15.2372 112.388 15.0948 113.164 15.0948C113.947 15.0948 114.643 15.2352 115.252 15.5161C115.861 15.7929 116.344 16.1727 116.7 16.6553C117.06 17.1379 117.25 17.6857 117.27 18.2989H115.846Z" fill="white"/>
<path d="M106.256 15.2609V27.4127H104.832L98.2098 17.8716H98.0912V27.4127H96.6196V15.2609H98.0437L104.689 24.8257H104.808V15.2609H106.256Z" fill="white"/>
<path d="M94.1454 21.3368C94.1454 22.6184 93.914 23.726 93.4512 24.6595C92.9884 25.5931 92.3535 26.313 91.5465 26.8193C90.7396 27.3257 89.8179 27.5788 88.7815 27.5788C87.7451 27.5788 86.8235 27.3257 86.0165 26.8193C85.2096 26.313 84.5747 25.5931 84.1119 24.6595C83.6491 23.726 83.4176 22.6184 83.4176 21.3368C83.4176 20.0552 83.6491 18.9476 84.1119 18.014C84.5747 17.0805 85.2096 16.3606 86.0165 15.8543C86.8235 15.3479 87.7451 15.0948 88.7815 15.0948C89.8179 15.0948 90.7396 15.3479 91.5465 15.8543C92.3535 16.3606 92.9884 17.0805 93.4512 18.014C93.914 18.9476 94.1454 20.0552 94.1454 21.3368ZM92.7213 21.3368C92.7213 20.2846 92.5453 19.3965 92.1933 18.6727C91.8452 17.9488 91.3725 17.4009 90.7752 17.0291C90.1818 16.6573 89.5173 16.4713 88.7815 16.4713C88.0458 16.4713 87.3792 16.6573 86.7819 17.0291C86.1886 17.4009 85.7159 17.9488 85.3638 18.6727C85.0157 19.3965 84.8417 20.2846 84.8417 21.3368C84.8417 22.389 85.0157 23.277 85.3638 24.0009C85.7159 24.7248 86.1886 25.2727 86.7819 25.6445C87.3792 26.0163 88.0458 26.2022 88.7815 26.2022C89.5173 26.2022 90.1818 26.0163 90.7752 25.6445C91.3725 25.2727 91.8452 24.7248 92.1933 24.0009C92.5453 23.277 92.7213 22.389 92.7213 21.3368Z" fill="white"/>
<path d="M80.9419 15.2609V27.4127H79.4704V15.2609H80.9419Z" fill="white"/>
<path d="M68.0855 16.5663V15.2609H77.1994V16.5663H73.3782V27.4127H71.9067V16.5663H68.0855Z" fill="white"/>
<path d="M65.7997 15.2609V27.4127H64.3282V15.2609H65.7997Z" fill="white"/>
<path d="M60.3186 18.2989C60.2474 17.6976 59.9587 17.2308 59.4523 16.8986C58.946 16.5663 58.325 16.4001 57.5892 16.4001C57.0512 16.4001 56.5805 16.4872 56.177 16.6612C55.7775 16.8353 55.465 17.0746 55.2396 17.3792C55.018 17.6838 54.9073 18.0299 54.9073 18.4175C54.9073 18.7419 54.9844 19.0208 55.1387 19.2541C55.2969 19.4836 55.4987 19.6754 55.7439 19.8297C55.9892 19.98 56.2463 20.1046 56.5153 20.2035C56.7842 20.2984 57.0315 20.3756 57.2569 20.4349L58.4911 20.7672C58.8076 20.8503 59.1596 20.965 59.5473 21.1113C59.9389 21.2577 60.3127 21.4574 60.6687 21.7106C61.0287 21.9598 61.3253 22.2802 61.5587 22.6718C61.7921 23.0634 61.9088 23.5441 61.9088 24.1137C61.9088 24.7703 61.7367 25.3637 61.3926 25.8937C61.0524 26.4238 60.554 26.845 59.8973 27.1575C59.2447 27.47 58.4515 27.6263 57.518 27.6263C56.6478 27.6263 55.8942 27.4859 55.2574 27.205C54.6245 26.9242 54.126 26.5325 53.7621 26.0302C53.4022 25.5278 53.1984 24.9444 53.151 24.2798H54.6699C54.7095 24.7387 54.8638 25.1184 55.1328 25.419C55.4057 25.7157 55.7498 25.9372 56.1652 26.0836C56.5845 26.226 57.0354 26.2972 57.518 26.2972C58.0797 26.2972 58.5841 26.2062 59.031 26.0242C59.478 25.8383 59.8321 25.5812 60.0931 25.2529C60.3542 24.9206 60.4848 24.533 60.4848 24.0899C60.4848 23.6865 60.372 23.3581 60.1465 23.105C59.9211 22.8518 59.6244 22.6461 59.2565 22.4879C58.8886 22.3297 58.4911 22.1912 58.0639 22.0725L56.5687 21.6453C55.6193 21.3724 54.8677 20.9828 54.3139 20.4764C53.7601 19.9701 53.4832 19.3075 53.4832 18.4887C53.4832 17.8084 53.6672 17.215 54.0351 16.7087C54.4069 16.1984 54.9053 15.8028 55.5303 15.522C56.1592 15.2372 56.8614 15.0948 57.6367 15.0948C58.4199 15.0948 59.1161 15.2352 59.7253 15.5161C60.3344 15.7929 60.817 16.1727 61.173 16.6553C61.533 17.1379 61.7229 17.6857 61.7426 18.2989H60.3186Z" fill="white"/>
<path d="M51.1989 21.3368C51.1989 22.6184 50.9675 23.726 50.5046 24.6595C50.0418 25.5931 49.4069 26.313 48.6 26.8193C47.793 27.3257 46.8714 27.5788 45.835 27.5788C44.7986 27.5788 43.8769 27.3257 43.07 26.8193C42.263 26.313 41.6282 25.5931 41.1653 24.6595C40.7025 23.726 40.4711 22.6184 40.4711 21.3368C40.4711 20.0552 40.7025 18.9476 41.1653 18.014C41.6282 17.0805 42.263 16.3606 43.07 15.8543C43.8769 15.3479 44.7986 15.0948 45.835 15.0948C46.8714 15.0948 47.793 15.3479 48.6 15.8543C49.4069 16.3606 50.0418 17.0805 50.5046 18.014C50.9675 18.9476 51.1989 20.0552 51.1989 21.3368ZM49.7748 21.3368C49.7748 20.2846 49.5988 19.3965 49.2467 18.6727C48.8986 17.9488 48.4259 17.4009 47.8286 17.0291C47.2353 16.6573 46.5707 16.4713 45.835 16.4713C45.0992 16.4713 44.4327 16.6573 43.8354 17.0291C43.2421 17.4009 42.7694 17.9488 42.4173 18.6727C42.0692 19.3965 41.8952 20.2846 41.8952 21.3368C41.8952 22.389 42.0692 23.277 42.4173 24.0009C42.7694 24.7248 43.2421 25.2727 43.8354 25.6445C44.4327 26.0163 45.0992 26.2022 45.835 26.2022C46.5707 26.2022 47.2353 26.0163 47.8286 25.6445C48.4259 25.2727 48.8986 24.7248 49.2467 24.0009C49.5988 23.277 49.7748 22.389 49.7748 21.3368Z" fill="white"/>
<path d="M30.3397 27.4127V15.2609H34.4457C35.399 15.2609 36.1783 15.433 36.7835 15.7771C37.3926 16.1173 37.8436 16.5781 38.1363 17.1596C38.429 17.7411 38.5754 18.3898 38.5754 19.1058C38.5754 19.8218 38.429 20.4725 38.1363 21.0579C37.8475 21.6434 37.4005 22.1101 36.7953 22.4582C36.1901 22.8024 35.4148 22.9744 34.4694 22.9744H31.5264V21.6691H34.4219C35.0746 21.6691 35.5987 21.5563 35.9943 21.3309C36.3899 21.1054 36.6767 20.8008 36.8547 20.4171C37.0366 20.0295 37.1276 19.5924 37.1276 19.1058C37.1276 18.6193 37.0366 18.1841 36.8547 17.8004C36.6767 17.4167 36.3879 17.1161 35.9884 16.8986C35.5889 16.677 35.0588 16.5663 34.3982 16.5663H31.8112V27.4127H30.3397Z" fill="white"/>
<defs>
<linearGradient id="paint0_linear_7_8" x1="25.7852" y1="4.16206e-07" x2="1.4362" y2="27.6253" gradientUnits="userSpaceOnUse">
<stop stop-color="#D8DDFD"/>
<stop offset="1" stop-color="#290404"/>
</linearGradient>
<linearGradient id="paint1_linear_7_8" x1="10.23" y1="9.13756" x2="10.23" y2="27.4127" gradientUnits="userSpaceOnUse">
<stop stop-color="#0F208F"/>
<stop offset="1" stop-color="#290404"/>
</linearGradient>
</defs>
</svg>
